<?xml version="1.0" standalone="no"?>
<!DOCTYPE svg PUBLIC "-//W3C//DTD SVG 20010904//EN"
 "http://www.w3.org/TR/2001/REC-SVG-20010904/DTD/svg10.dtd">
<svg version="1.0" xmlns="http://www.w3.org/2000/svg"
 width="1280.000000pt" height="823.000000pt" viewBox="0 0 1280.000000 823.000000"
 preserveAspectRatio="xMidYMid meet">
<metadata>
Created by potrace 1.16, written by Peter Selinger 2001-2019
</metadata>
<g transform="translate(0.000000,823.000000) scale(0.100000,-0.100000)"
fill="#000000" stroke="none">
<path d="M545 3923 c-11 -2 -40 -11 -64 -19 -27 -8 -48 -10 -55 -5 -6 5 -31
12 -56 16 -42 6 -54 2 -172 -59 -86 -45 -139 -66 -163 -66 l-35 0 0 -59 0 -59
80 0 c62 -1 80 2 80 13 0 8 24 21 58 32 31 10 56 24 55 31 -3 14 34 35 47 27
14 -9 108 25 114 41 4 10 23 14 65 14 39 0 61 4 64 13 3 9 36 12 125 10 98 -1
122 1 126 13 3 9 10 12 16 9 15 -9 12 -25 -4 -25 -14 0 -31 -29 -22 -38 8 -8
38 7 32 16 -9 15 38 31 58 20 10 -5 20 -8 23 -5 2 3 -17 15 -43 27 -27 11 -51
25 -54 31 -13 21 -209 37 -275 22z"/>
<path d="M6815 2874 l-70 -35 -105 7 c-139 9 -152 10 -173 19 -26 11 -102 -2
-182 -30 -38 -13 -80 -25 -92 -25 -12 0 -26 -6 -30 -14 -4 -7 -25 -19 -45 -25
-28 -9 -38 -18 -38 -34 -1 -20 -2 -20 -11 -4 -11 19 -39 23 -39 6 0 -6 -9 -9
-20 -6 -12 3 -34 -5 -57 -22 -80 -57 -213 -101 -213 -71 0 6 -13 4 -30 -5 -16
-9 -30 -20 -30 -25 0 -6 -5 -10 -12 -10 -6 0 -34 -11 -62 -24 -28 -13 -80 -27
-116 -30 -36 -4 -78 -9 -95 -12 -16 -3 -39 -5 -49 -5 -10 0 -31 -6 -46 -14
-15 -8 -36 -11 -48 -8 -12 3 -44 0 -71 -7 -54 -13 -85 -18 -146 -25 -49 -6
-126 -26 -140 -35 -5 -4 -34 -13 -62 -21 -29 -7 -53 -16 -53 -21 0 -4 -6 -8
-14 -8 -8 0 -16 -3 -18 -7 -5 -12 -68 -41 -108 -50 -19 -4 -60 -7 -90 -6 -30
1 -72 2 -92 2 -26 0 -41 6 -52 22 -13 20 -16 20 -22 6 -8 -22 -24 -12 -24 16
-1 21 -1 21 -15 4 -10 -15 -21 -17 -44 -12 -17 4 -35 13 -39 21 -5 10 -39 18
-98 25 -83 10 -94 9 -149 -11 -69 -26 -108 -32 -184 -31 -38 1 -57 -3 -65 -14
-6 -9 -32 -19 -56 -22 -25 -3 -58 -12 -73 -20 -16 -8 -31 -12 -34 -9 -3 3 -14
-5 -24 -18 -15 -20 -28 -24 -65 -23 -33 0 -51 -5 -59 -16 -7 -10 -16 -17 -20
-17 -4 0 -20 -9 -36 -21 -16 -11 -36 -18 -44 -16 -7 3 -19 -1 -25 -9 -7 -8
-21 -14 -31 -14 -11 0 -19 -5 -19 -12 0 -9 -3 -9 -12 0 -19 19 -26 15 -38 -23
-11 -32 -30 -48 -30 -25 0 14 -42 12 -62 -4 -10 -7 -18 -18 -18 -25 0 -6 -11
-11 -23 -11 -25 0 -57 -28 -57 -48 0 -7 -16 -12 -40 -12 -22 0 -40 -4 -40 -10
0 -5 6 -10 13 -10 8 0 9 -3 1 -8 -6 -4 -14 -14 -17 -22 -4 -11 -7 -10 -12 8
-10 29 -25 28 -25 -2 0 -17 -10 -31 -30 -43 -33 -19 -36 -29 -16 -55 8 -12 27
-18 50 -18 35 0 49 -14 24 -23 -7 -2 8 -2 35 1 41 4 47 2 41 -12 -3 -9 -1 -16
5 -16 6 0 11 5 11 10 0 6 18 10 40 10 22 0 40 -4 40 -10 0 -5 18 -10 39 -10
22 0 41 -5 43 -10 2 -6 14 -7 33 -2 43 12 125 3 125 -13 0 -12 5 -12 33 -1 37
16 96 10 104 -10 8 -21 23 -17 23 6 0 15 7 20 28 20 50 0 212 -24 212 -32 0
-4 -12 -8 -26 -8 -14 0 -23 -4 -19 -10 3 -5 20 -10 36 -10 16 0 41 -7 54 -16
13 -9 29 -13 35 -9 19 12 80 -15 80 -36 0 -12 15 -26 40 -39 22 -11 40 -27 40
-34 0 -15 37 -31 93 -41 21 -3 45 -9 53 -12 8 -3 14 1 14 8 0 7 8 21 18 32 17
19 16 19 -14 13 -31 -7 -32 -6 -36 34 -5 58 8 74 50 59 17 -6 32 -15 32 -20 0
-5 7 -9 15 -9 8 0 15 -4 15 -9 0 -4 15 -11 33 -14 18 -3 54 -18 79 -34 25 -16
64 -35 87 -43 28 -9 41 -19 41 -32 0 -14 8 -18 38 -19 20 0 45 -2 54 -4 28 -5
67 -39 68 -57 0 -15 9 -18 53 -18 41 -1 58 -6 80 -25 15 -13 27 -31 27 -39 0
-10 12 -16 38 -18 35 -3 37 -5 40 -40 3 -36 5 -38 37 -38 19 0 37 -4 40 -10 4
-6 67 -10 156 -10 151 0 179 -6 179 -39 0 -6 16 -11 35 -11 19 0 35 -4 35 -9
0 -14 63 9 73 26 12 20 167 19 167 -1 0 -32 20 -25 40 14 23 45 42 50 80 20
l25 -20 -25 -20 -25 -20 28 0 c17 0 27 -5 27 -14 0 -25 21 -29 43 -8 16 14 41
21 90 25 42 3 75 11 86 21 22 20 31 20 31 1 0 -20 34 -19 50 0 7 9 20 13 28
10 16 -6 82 15 82 26 0 3 26 9 57 12 36 4 60 12 65 21 10 18 38 22 38 6 0 -5
18 -10 40 -10 39 0 40 1 40 35 l0 35 78 0 c54 0 73 3 62 10 -13 9 -13 11 0 20
12 7 16 4 18 -17 3 -20 6 -23 13 -12 7 12 9 12 9 0 0 -8 9 -2 21 13 26 33 39
33 39 -1 0 -19 3 -24 9 -15 4 8 12 12 17 10 5 -1 10 34 12 80 l3 83 34 -2 c21
-2 41 3 53 14 24 22 32 22 32 -3 0 -30 27 -13 42 26 12 34 38 47 38 19 0 -11
11 -15 40 -15 29 0 40 -4 40 -15 0 -11 12 -15 46 -15 35 0 53 6 78 27 l31 26
5 -34 c5 -31 8 -34 40 -34 33 0 35 2 38 38 3 29 7 37 23 37 10 0 19 5 19 10 0
6 7 10 15 10 10 0 15 10 15 28 0 21 -12 40 -42 68 l-42 39 29 6 c26 5 27 7 11
14 -18 8 -18 9 0 22 21 15 54 17 54 3 0 -5 8 -10 18 -10 9 0 30 -7 46 -15 15
-8 33 -15 38 -15 5 0 17 -7 25 -16 11 -11 27 -14 49 -11 24 4 37 0 50 -14 12
-13 30 -19 61 -19 23 0 43 -4 43 -10 0 -5 -4 -10 -10 -10 -5 0 -7 -6 -4 -14 4
-10 31 -16 85 -21 68 -6 79 -10 79 -26 0 -15 7 -19 40 -19 22 0 40 -4 40 -10
0 -5 18 -10 40 -10 22 0 40 5 40 10 0 6 15 10 33 10 17 0 50 7 72 15 l40 14
-32 13 c-18 7 -33 18 -33 25 0 12 -25 17 -75 16 -11 0 -23 5 -28 13 -12 20
-67 44 -104 44 -18 0 -33 5 -33 10 0 6 -8 10 -17 10 -21 1 -56 28 -65 50 -3 8
-27 26 -54 39 -27 13 -59 32 -72 42 -13 10 -29 16 -37 13 -7 -3 -16 -1 -20 5
-3 6 -17 11 -31 11 -13 0 -24 4 -24 8 0 5 -25 14 -55 21 -34 8 -55 18 -55 26
0 18 20 30 29 18 13 -21 107 -33 248 -32 97 0 149 -3 151 -10 2 -7 35 -11 83
-11 49 0 79 -4 79 -11 0 -6 28 -9 78 -7 42 1 114 2 160 0 75 -2 82 -4 82 -22
0 -18 7 -20 66 -20 57 0 67 3 71 20 3 11 9 20 14 20 5 0 9 -9 9 -20 0 -17 7
-20 40 -20 22 0 40 -4 40 -10 0 -6 33 -10 80 -10 47 0 80 -4 80 -10 0 -5 8
-10 18 -10 10 0 25 -9 35 -20 12 -15 29 -20 62 -20 25 0 45 -4 45 -10 0 -6 33
-10 80 -10 47 0 80 -4 80 -10 0 -5 18 -10 40 -10 l40 0 0 -60 0 -60 40 0 c33
0 40 -3 40 -20 0 -18 7 -20 80 -20 73 0 80 -2 80 -20 0 -17 7 -20 40 -20 22 0
40 -4 40 -10 0 -6 33 -10 79 -10 53 0 81 -4 83 -12 3 -8 39 -12 121 -11 107 0
117 -2 117 -19 0 -16 9 -18 80 -18 62 0 80 -3 80 -14 0 -16 35 -11 59 8 11 8
15 8 18 -1 3 -8 21 -13 43 -13 35 0 39 3 42 27 3 24 7 28 41 28 36 1 37 1 37
-37 l0 -38 120 0 120 0 0 -80 0 -80 40 0 40 0 0 -60 c0 -62 9 -74 32 -42 11
16 25 18 111 14 69 -3 97 -8 97 -17 0 -30 140 -22 162 9 8 12 78 16 78 4 0 -4
18 -8 40 -8 22 0 40 -4 40 -10 0 -6 47 -10 120 -10 110 0 120 2 120 19 0 15
11 19 61 25 97 10 99 9 99 -20 0 -42 21 -27 50 35 9 21 30 26 30 7 0 -12 10
-16 40 -16 29 0 40 4 40 15 0 11 11 15 40 15 30 0 40 -4 40 -16 0 -12 10 -8
40 16 30 24 40 28 40 16 0 -9 4 -16 8 -16 14 0 32 23 32 42 0 10 9 23 20 30
11 7 20 21 20 30 0 14 8 18 40 18 39 0 40 -1 40 -35 0 -34 1 -35 40 -35 29 0
40 4 40 15 0 11 11 15 40 15 33 0 40 -3 40 -20 0 -13 7 -20 20 -20 17 0 20 7
20 38 l0 39 103 -3 c56 -1 92 0 80 2 -51 12 -14 44 49 44 34 0 48 4 48 14 0 9
20 15 61 20 103 10 99 12 99 -39 l0 -45 40 0 c22 0 40 5 40 10 0 6 33 10 80
10 l80 0 0 615 c0 529 -2 615 -14 615 -8 0 -21 -9 -29 -21 l-15 -21 -7 21
c-10 33 -44 27 -52 -9 -4 -24 -8 -28 -19 -19 -11 9 -14 8 -14 -5 0 -12 -7 -14
-30 -10 -22 5 -31 2 -36 -10 -4 -10 -12 -15 -19 -12 -15 5 -76 -30 -88 -51 -5
-8 -16 -11 -27 -8 -12 4 -27 -2 -39 -14 -23 -23 -80 -28 -99 -9 -8 8 -14 5
-21 -15 -11 -29 -31 -37 -31 -13 0 21 -23 25 -36 7 -10 -13 -14 -10 -27 16
-19 37 -43 48 -55 26 -11 -18 -32 -9 -32 13 0 14 -5 16 -53 18 -15 0 -32 7
-36 15 -7 11 -11 10 -19 -5 -11 -18 -11 -18 -26 1 -15 19 -17 19 -30 2 -12
-15 -14 -16 -20 -2 -7 20 -45 19 -53 -1 -4 -12 -8 -13 -14 -3 -12 20 -49 22
-50 1 0 -14 -2 -14 -9 3 l-9 20 -1 -20 c-1 -18 -2 -18 -13 -4 -12 16 -37 14
-49 -4 -3 -6 -22 -12 -42 -13 -28 -3 -38 2 -47 18 -11 20 -13 20 -24 5 -6 -9
-30 -19 -52 -23 -36 -5 -43 -3 -53 16 -10 18 -14 20 -21 9 -6 -10 -11 -11 -16
-3 -9 14 -61 15 -69 2 -3 -5 -12 -4 -20 3 -9 8 -33 10 -68 5 -49 -5 -55 -4
-61 14 -8 25 -27 26 -42 2 -16 -26 -69 -17 -90 14 -20 31 -29 30 -58 -3 l-23
-28 -12 27 c-10 20 -19 26 -45 26 -19 0 -39 3 -45 7 -6 4 -17 1 -25 -5 -8 -7
-21 -10 -29 -7 -8 3 -17 1 -20 -6 -3 -9 -8 -8 -15 3 -10 13 -12 13 -22 0 -6
-8 -12 -11 -15 -5 -2 6 -36 10 -75 10 -58 0 -73 -4 -85 -20 -8 -10 -14 -13
-14 -7 0 16 -72 16 -88 0 -8 -8 -15 -8 -27 2 -11 9 -18 10 -28 1 -8 -6 -17 -8
-20 -5 -10 11 -97 -19 -97 -33 0 -7 -4 -13 -10 -13 -5 0 -10 7 -10 16 0 10 -6
14 -15 10 -10 -3 -15 1 -15 11 0 14 -2 14 -14 -3 -14 -18 -15 -18 -21 -1 -4 9
-18 17 -31 17 -14 0 -27 6 -30 14 -3 8 -28 16 -60 20 -43 5 -59 3 -71 -10 -12
-12 -18 -13 -24 -3 -10 18 -35 -3 -44 -38 -7 -31 -31 -57 -44 -48 -6 3 -14 -3
-20 -12 -9 -16 -11 -15 -12 7 -1 21 -2 22 -6 5 -3 -11 -14 -28 -24 -38 -19
-17 -20 -17 -40 18 -14 23 -27 34 -36 31 -7 -3 -16 1 -20 9 -4 12 -9 13 -19 4
-11 -9 -14 -8 -14 6 0 12 -5 15 -16 11 -9 -4 -25 0 -34 9 -22 20 -150 31 -150
13 0 -6 -6 -3 -14 7 -11 16 -17 17 -29 7 -10 -9 -17 -10 -22 -2 -3 6 -10 8
-14 6 -4 -3 -43 -8 -87 -12 -43 -3 -84 -10 -90 -15 -6 -5 -41 -6 -77 -2 -38 3
-67 2 -67 -3 0 -12 -229 -5 -252 7 -10 5 -19 5 -22 0 -3 -5 -19 -11 -36 -13
-24 -4 -30 -1 -30 14 0 26 -18 22 -22 -4 -4 -29 -47 -36 -82 -13 -14 9 -29 14
-34 11 -14 -8 -75 15 -88 32 -6 9 -18 13 -27 9 -9 -3 -19 -2 -23 4 -3 6 -13 8
-22 4 -8 -3 -19 0 -23 7 -6 9 -11 9 -22 -1 -13 -10 -16 -7 -22 19 -6 25 -9 29
-21 19 -8 -6 -14 -20 -14 -30 0 -23 -23 -25 -40 -4 -9 11 -15 12 -20 5 -4 -6
-26 -13 -49 -14 -36 -3 -42 0 -47 20 -8 30 -33 31 -65 3 -19 -17 -25 -18 -34
-6 -16 22 -45 29 -51 12 -8 -21 -83 -20 -90 0 -8 20 -55 40 -129 54 -33 7
-122 26 -197 43 -116 27 -141 30 -161 19 -35 -19 -100 -3 -130 33 -16 20 -18
20 -28 4 -14 -25 -37 -22 -103 11 -46 23 -66 27 -101 23 -25 -2 -50 0 -57 5
-7 6 -47 18 -88 28 -65 16 -81 24 -116 62 -23 23 -47 43 -55 42 -8 0 -45 -16
-84 -35z"/>
<path d="M47 2691 l-47 -50 0 -873 c0 -667 3 -877 12 -886 9 -9 9 -12 0 -12
-9 0 -12 -103 -12 -435 l0 -435 1600 0 c1412 0 1599 2 1594 15 -4 8 -1 15 5
15 7 0 14 -7 17 -15 5 -13 553 -15 4795 -15 l4789 0 0 445 c0 483 1 477 -53
443 -33 -23 -139 -38 -257 -37 -62 0 -117 -5 -135 -12 -19 -8 -96 -13 -205
-15 -179 -4 -351 -19 -379 -34 -9 -5 -43 -19 -76 -30 -33 -12 -68 -29 -79 -38
-26 -23 -66 -88 -66 -107 0 -8 -4 -15 -10 -15 -5 0 -10 -12 -10 -27 0 -55 -43
-83 -123 -83 -42 0 -59 -4 -63 -15 -4 -8 -15 -15 -25 -15 -10 0 -19 -4 -19 -9
0 -5 -11 -9 -24 -9 -23 0 -87 -37 -94 -54 -2 -4 -22 -8 -45 -8 -32 0 -58 10
-105 40 -34 22 -74 43 -87 46 -14 3 -25 10 -25 15 0 5 -7 9 -15 9 -9 0 -21 11
-27 25 -6 14 -14 25 -18 25 -3 0 -26 18 -50 40 -25 23 -56 43 -70 46 -14 3
-40 13 -59 21 -32 15 -85 14 -136 -2 -20 -6 -21 -3 -15 54 3 33 11 66 18 73
16 16 15 90 0 110 -12 15 -40 22 -77 19 -8 -1 -11 -9 -8 -23 7 -32 -6 -73 -23
-73 -16 0 -28 -52 -29 -121 l-1 -41 -52 -8 c-29 -4 -105 -7 -168 -6 -82 2
-128 -2 -159 -13 -65 -22 -292 -12 -339 15 -18 10 -41 19 -51 19 -9 0 -21 4
-27 9 -5 6 -25 12 -44 14 -50 6 -89 27 -83 43 6 17 -13 19 -21 2 -3 -9 -10 -7
-23 8 -10 11 -23 19 -29 17 -7 -2 -18 13 -27 34 -13 33 -16 36 -23 18 -4 -11
-12 -23 -17 -26 -7 -5 -58 19 -127 61 -39 23 -228 109 -255 116 -16 4 -37 12
-45 18 -42 32 -103 55 -175 66 -88 13 -171 49 -258 109 -80 57 -117 66 -213
52 -44 -6 -90 -14 -104 -18 -14 -4 -187 -7 -385 -8 -355 -2 -413 -6 -452 -37
-17 -13 -187 -54 -260 -62 -72 -8 -196 -61 -232 -100 -29 -31 -102 -61 -131
-53 -12 3 -33 -1 -48 -9 -15 -8 -33 -14 -40 -14 -12 0 -51 -19 -62 -30 -3 -3
-21 -16 -40 -29 -19 -14 -41 -33 -48 -43 -7 -10 -20 -18 -29 -18 -9 0 -36 -12
-61 -26 -42 -25 -51 -26 -121 -20 -93 8 -116 11 -161 25 -54 17 -158 13 -230
-9 -67 -20 -92 -19 -122 7 -21 18 -108 21 -166 5 -23 -7 -55 -14 -70 -15 -15
-2 -42 -11 -61 -21 -41 -22 -151 -14 -151 10 0 8 -4 14 -10 14 -5 0 -19 9 -30
20 -13 13 -49 26 -98 36 -42 8 -85 19 -95 25 -10 5 -22 7 -28 3 -6 -3 -19 2
-29 11 -11 10 -26 15 -35 12 -8 -4 -15 -2 -15 4 0 6 -7 9 -15 5 -8 -3 -15 -1
-15 5 0 6 -8 8 -18 5 -24 -8 -125 20 -138 39 -6 8 -14 15 -17 15 -14 0 -47 35
-47 49 0 11 -3 12 -11 4 -12 -12 -138 18 -175 42 -13 8 -30 15 -39 15 -8 0
-15 5 -15 10 0 6 -7 10 -15 10 -9 0 -26 11 -39 25 -27 29 -84 55 -121 55 -14
0 -25 3 -25 8 0 4 -24 18 -53 31 -28 13 -74 34 -102 47 -27 13 -76 31 -107 40
-32 9 -58 22 -58 28 0 7 -25 23 -55 36 -51 23 -60 31 -56 54 3 15 -19 24 -42
18 -20 -5 -20 -6 -1 -13 18 -7 18 -7 0 -14 -23 -10 -86 22 -86 42 0 8 -4 12
-10 8 -5 -3 -7 -11 -4 -18 9 -26 -59 -19 -91 9 -17 15 -37 23 -48 20 -24 -6
-77 12 -102 35 -12 10 -36 22 -55 25 -37 7 -40 9 -225 103 -65 33 -127 61
-137 61 -9 0 -20 5 -23 10 -3 6 -17 10 -31 10 -13 0 -24 4 -24 8 0 5 -11 15
-25 22 -14 7 -25 19 -25 25 0 10 -65 45 -84 45 -13 0 -121 53 -124 62 -2 4
-12 8 -22 8 -10 0 -20 7 -24 15 -3 8 -9 14 -13 14 -4 -1 -15 0 -23 3 -8 4 -24
9 -35 14 -11 4 -22 8 -25 8 -3 1 -23 12 -45 25 -42 26 -143 71 -159 71 -5 0
-17 6 -25 13 -9 8 -45 21 -81 31 -36 9 -101 34 -145 55 -44 21 -93 39 -109 40
-16 0 -35 6 -41 11 -7 6 -17 10 -21 8 -5 -1 -26 6 -48 15 -21 9 -45 17 -53 17
-8 0 -42 11 -76 23 -64 25 -122 42 -194 57 -66 14 -232 67 -248 79 -5 4 -39
16 -75 25 -36 10 -84 27 -108 37 -23 11 -47 17 -53 14 -5 -4 -15 -2 -22 3 -7
5 -34 14 -62 20 -27 6 -68 20 -90 32 -21 11 -49 20 -62 20 -12 0 -25 5 -28 10
-3 6 -15 10 -26 10 -11 0 -22 7 -25 15 -4 8 -17 15 -30 15 -14 0 -27 7 -30 15
-4 8 -10 12 -15 9 -5 -3 -35 8 -67 24 -31 16 -81 35 -110 41 -28 7 -55 17 -58
22 -3 5 -12 9 -20 9 -8 0 -31 11 -52 24 -54 34 -140 56 -219 56 l-70 0 -46
-49z"/>
</g>
</svg>
